<?xml version="1.0" encoding="iso-8859-1"?>
<!-- Generator: Adobe Illustrator 19.0.0, SVG Export Plug-In . SVG Version: 6.00 Build 0)  -->
<svg version="1.1" id="Capa_1" xmlns="http://www.w3.org/2000/svg" xmlns:xlink="http://www.w3.org/1999/xlink" x="0px" y="0px"
	 viewBox="0 0 512.001 512.001" style="enable-background:new 0 0 512.001 512.001;" xml:space="preserve">
<path style="fill:#1A4A9C;" d="M456.135,8.649l-8.8-5.198c-7.712-4.555-17.279-4.604-25.036-0.127L58.914,213.04
	c-16.042,9.262-25.925,26.379-25.925,44.904v226.707c0,7.434,3.973,14.301,10.419,18.006l11.082,6.37
	c0.188,0.112,0.378,0.221,0.57,0.328l0.301,0.173l0.006-0.008c5.96,3.184,13.452,3.531,20.14-0.33l365.247-210.876
	c16.043-9.262,25.925-26.379,25.925-44.904V26.712C466.678,18.652,462.274,12.121,456.135,8.649z"/>
<path style="fill:#C40041;" d="M178.082,265.533c0,41.128-25.006,88.906-55.852,106.715s-55.852-1.095-55.852-42.223
	s25.006-88.906,55.852-106.715S178.082,224.405,178.082,265.533z"/>
<path style="fill:#FFD800;" d="M241.934,228.267c0,41.128-25.006,88.906-55.852,106.715s-55.852-1.095-55.852-42.223
	s25.006-88.906,55.852-106.715S241.934,187.139,241.934,228.267z"/>
<path style="fill:#0C5EE0;" d="M44.373,491.214V264.517c0-18.524,9.883-35.641,25.925-44.904L435.546,8.738
	c6.856-3.959,14.559-3.499,20.589-0.089l-8.8-5.198c-7.712-4.555-17.279-4.604-25.036-0.127L58.914,213.04
	c-16.042,9.262-25.925,26.379-25.925,44.904v226.707c0,7.434,3.973,14.301,10.419,18.006l11.082,6.37
	C48.575,505.496,44.373,499.085,44.373,491.214z"/>
<path style="fill:#2683BF;" d="M55.059,509.354l0.301,0.173l0.006-0.008C55.263,509.464,55.16,509.41,55.059,509.354z"/>
<g>
	<polygon style="fill:#F2A380;" points="95.497,412.541 181.957,362.284 181.957,412.67 95.497,463.138 	"/>
	<polygon style="fill:#F2A380;" points="206.603,349.123 293.063,298.867 293.063,349.252 206.603,399.721 	"/>
</g>
<polygon style="fill:#FFFFFF;" points="356.975,105.953 438.911,58.648 438.911,110.979 356.975,158.284 "/>
<g>
	<path style="fill:#C2C2C2;" d="M368.894,108.416l13.256-7.653c2.62-1.513,5.895,0.378,5.895,3.403v17.95l-5.701,3.421v2.819
		l51.304-29.317v5.349c0,1.743-0.93,3.354-2.44,4.226l-67.72,39.098v-5.289c0-1.711,0.896-3.297,2.362-4.18l12.359-7.445v-2.819
		l-8.858,5.003c-2.62,1.48-5.863-0.413-5.863-3.422v-11.784C363.489,113.916,365.55,110.347,368.894,108.416z"/>
	<path style="fill:#C2C2C2;" d="M431.209,97.196c1.51-0.871,2.44-2.482,2.44-4.226v-7.956l-37.902,21.883
		c-1.51,0.871-2.44,2.482-2.44,4.226v7.956L431.209,97.196z"/>
	<path style="fill:#C2C2C2;" d="M395.747,92.927c-1.51,0.872-2.44,2.482-2.44,4.226v7.956l20.864-12.052
		c1.509-0.872,2.439-2.482,2.439-4.225v-7.95L395.747,92.927z"/>
	<path style="fill:#C2C2C2;" d="M421.213,78.093c-1.528,0.866-2.473,2.488-2.473,4.245v8.087l12.469-7.199
		c1.51-0.871,2.44-2.482,2.44-4.226v-7.956L421.213,78.093z"/>
</g>
<g style="opacity:0.2;">
	<path style="fill:#FFFF00;" d="M113.258,194.811L44.374,386.605v104.61c0,15.977,17.296,25.963,31.132,17.974l60.986-35.211
		l132.574-369.123L113.258,194.811z"/>
</g>
<g style="opacity:0.2;">
	<path style="fill:#FFFF00;" d="M466.678,113.53V26.712c0-15.977-17.296-25.963-31.132-17.974l-91.296,52.71L211.676,430.57
		l178.056-102.8L466.678,113.53z"/>
</g>
<path style="fill:#1A4A9C;" d="M455.803,186.662l-90.63,3.999l-90.021,100.3l0.006,10.196c0.02,30.407,16.709,59.083,43.082,74.202
	l-0.005,0.001l20.942,12.151l-0.016-0.04c14.328,8.807,31.796,13.439,49.22,12.528l23.104-25.382
	c43.447-47.732,67.526-109.955,67.526-174.499L455.803,186.662z"/>
<path style="fill:#C8CED6;" d="M464.577,214.767c-3.318,55.852-25.55,108.794-63.445,150.425l-19.028,20.904
	c-38.588-0.925-69.715-32.64-69.738-71.493l-0.003-4.83l82.509-91.931L464.577,214.767 M479.011,200.117l-90.63,3.999l-90.021,100.3
	l0.006,10.196c0.027,47.455,38.583,85.505,85.469,85.505c1.509,0,3.021-0.039,4.546-0.119l23.104-25.382
	C454.933,326.885,479.011,264.661,479.011,200.117L479.011,200.117z"/>
<polygon style="fill:#0C5EE0;" points="365.173,190.661 388.381,204.116 479.011,200.117 455.803,186.662 "/>
<path style="fill:#FFFFFF;" d="M389.852,337.471c-1.579,0-3.146-0.415-4.535-1.226l-33.471-19.529
	c-10.051-5.864-0.98-21.412,9.07-15.547l25.331,14.78l36.001-68.786c5.396-10.31,21.342-1.963,15.947,8.347l-40.37,77.135
	C395.857,335.828,393.199,337.437,389.852,337.471z"/>
<path style="fill:#1A4583;" d="M323.144,374.758h-0.001c-15.763-15.929-24.761-37.728-24.777-60.147l-0.006-10.196l-23.208-13.455
	l0.006,10.196c0.018,31.883,17.438,59.5,43.083,74.202l-0.005,0.001l20.942,12.151l-0.016-0.04
	C333.325,383.879,327.949,379.607,323.144,374.758z"/>
<g>
</g>
<g>
</g>
<g>
</g>
<g>
</g>
<g>
</g>
<g>
</g>
<g>
</g>
<g>
</g>
<g>
</g>
<g>
</g>
<g>
</g>
<g>
</g>
<g>
</g>
<g>
</g>
<g>
</g>
</svg>
